<svg width="20" height="20" viewBox="0 0 20 20" fill="none" xmlns="http://www.w3.org/2000/svg">
<path d="M1.28906 9.97812C1.28906 6.79431 2.11719 3.86762 3.68359 1.50438C3.92969 1.15974 3.92969 0.601751 3.65234 0.257112C3.53125 0.0875276 3.375 0 3.22266 0C3.03906 0 2.88281 0.0875276 2.76172 0.257112C0.953125 2.96499 0 6.32385 0 9.97812C0 13.6324 0.953125 16.9912 2.76563 19.6991C2.88672 19.8687 3.04297 20 3.22656 20C3.37891 20 3.53516 19.9125 3.65625 19.7429C3.77734 19.5733 3.83984 19.3545 3.83984 19.0974C3.83984 18.8403 3.77734 18.6214 3.65625 18.4519C2.12109 16.0886 1.28906 13.1619 1.28906 9.97812ZM17.2344 0.257112C17.1133 0.0875276 16.957 0 16.7734 0C16.6211 0 16.4648 0.0875276 16.3437 0.257112C16.2227 0.426696 16.1602 0.645514 16.1602 0.902626C16.1602 1.15974 16.2227 1.37856 16.3437 1.54814C17.9102 3.91685 18.7383 6.83807 18.7383 10.0219C18.7383 13.2057 17.9102 16.1324 16.3437 18.4956C16.0977 18.8403 16.0977 19.3983 16.3437 19.7429C16.4648 19.9125 16.6211 20 16.7734 20C16.957 20 17.1133 19.9125 17.2344 19.6991C19.0469 17.0295 20 13.6761 20 10.0164C20 6.35667 19.0469 2.96499 17.2344 0.257112Z" fill="#C94B15"/>
<path d="M5.71484 15.7002C4.64063 14.1958 4.05469 12.1717 4.05469 10.0218C4.05469 7.82817 4.66797 5.76034 5.77344 4.25596C6.01953 3.91132 6.01953 3.35334 5.77344 3.0087C5.65234 2.83911 5.49609 2.75159 5.3125 2.75159C5.16016 2.75159 5.00391 2.83911 4.88281 3.0087C3.53125 4.85771 2.79688 7.35224 2.79688 10.0218C2.79688 12.6039 3.50391 15.0547 4.82422 16.9037C4.94531 17.0733 5.10156 17.1608 5.25391 17.1608C5.40625 17.1608 5.5625 17.0733 5.68359 16.9037C5.80469 16.7341 5.86719 16.5153 5.86719 16.3019C5.89844 16.0886 5.80469 15.8752 5.71484 15.7002ZM15.1445 3.0087C15.0234 2.83911 14.8672 2.75159 14.7148 2.75159C14.5312 2.75159 14.375 2.83911 14.2539 3.0087C14.0078 3.35334 14.0078 3.91132 14.2539 4.25596C15.3594 5.8041 15.9727 7.78441 15.9727 9.97806C15.9727 12.128 15.3906 14.1958 14.3125 15.7002C14.0664 16.0448 14.0664 16.6028 14.3125 16.9474C14.4336 17.117 14.5898 17.2045 14.7422 17.2045C14.9258 17.2045 15.082 17.117 15.1719 16.9474C16.4922 15.0984 17.1992 12.6039 17.1992 9.97806C17.2344 7.30848 16.4961 4.90148 15.1445 3.0087Z" fill="#C94B15"/>
<path d="M7.83594 5.45957C7.71484 5.28998 7.55859 5.20246 7.375 5.20246C7.22266 5.20246 7.06641 5.28998 6.94531 5.45957C6.05469 6.66307 5.5625 8.29874 5.5625 10.0219C5.5625 11.7014 6.02344 13.2933 6.88281 14.5405C7.00391 14.7101 7.16016 14.7976 7.34375 14.7976C7.49609 14.7976 7.65234 14.7101 7.77344 14.5405C7.89453 14.3709 7.95703 14.1521 7.95703 13.9388C7.95703 13.7254 7.89453 13.4629 7.77344 13.2933C7.16016 12.4344 6.82031 11.2692 6.82031 10.0219C6.82031 8.77467 7.1875 7.57116 7.80469 6.70683C8.07813 6.36219 8.07813 5.80421 7.83594 5.45957ZM13.1172 5.4158C12.9961 5.24622 12.8398 5.15869 12.6875 5.15869C12.5039 5.15869 12.3477 5.24622 12.2266 5.4158C11.9805 5.76044 11.9805 6.31843 12.2266 6.66307C12.8711 7.56569 13.2422 8.7309 13.2422 10.0165C13.2422 11.2637 12.9023 12.4235 12.2891 13.2878C12.168 13.4574 12.1055 13.6762 12.1055 13.8895C12.1055 14.1029 12.168 14.3217 12.2891 14.4913C12.4102 14.6609 12.5664 14.7484 12.7188 14.7484C12.8711 14.7484 13.0586 14.6609 13.1484 14.4913C14.0078 13.2878 14.4688 11.6959 14.4688 9.9727C14.5 8.29874 14.0078 6.66307 13.1172 5.4158ZM10.0156 7.61493C9.09375 7.61493 8.32422 8.69261 8.32422 9.98364C8.32422 11.2747 9.09375 12.3523 10.0156 12.3523C10.9375 12.3523 11.707 11.2747 11.707 9.98364C11.707 8.69261 10.9375 7.61493 10.0156 7.61493Z" fill="#C94B15"/>
</svg>
