<svg width="15" height="15" viewBox="0 0 15 15" fill="none" xmlns="http://www.w3.org/2000/svg">
<path d="M7.48359 14.0332C5.09573 14.0332 2.90071 13.4121 1.12828 12.2373C0.869803 12.0527 0.451313 12.0527 0.192834 12.2607C0.0656457 12.3516 0 12.4687 0 12.583C0 12.7207 0.0656457 12.8379 0.192834 12.9287C2.22374 14.2852 4.74289 15 7.48359 15C10.2243 15 12.7434 14.2852 14.7743 12.9258C14.9015 12.835 15 12.7178 15 12.5801C15 12.4658 14.9344 12.3486 14.8072 12.2578C14.68 12.167 14.5159 12.1201 14.323 12.1201C14.1302 12.1201 13.9661 12.167 13.8389 12.2578C12.0665 13.4092 9.87144 14.0332 7.48359 14.0332ZM0.192834 2.07422C0.0656457 2.16504 0 2.28223 0 2.41992C0 2.53418 0.0656457 2.65137 0.192834 2.74219C0.320022 2.83301 0.484136 2.87988 0.676969 2.87988C0.869803 2.87988 1.03392 2.83301 1.16111 2.74219C2.93764 1.56738 5.12856 0.946289 7.51641 0.946289C9.90427 0.946289 12.0993 1.56738 13.8717 2.74219C14.1302 2.92676 14.5487 2.92676 14.8072 2.74219C14.9344 2.65137 15 2.53418 15 2.41992C15 2.28223 14.9344 2.16504 14.7743 2.07422C12.7722 0.714843 10.2571 0 7.51231 0C4.76751 0 2.22374 0.714843 0.192834 2.07422Z" fill="#C94B15"/>
<path d="M11.7752 10.7139C10.6469 11.5195 9.12882 11.959 7.5164 11.959C5.87116 11.959 4.32029 11.499 3.192 10.6699C2.93352 10.4854 2.51503 10.4854 2.25655 10.6699C2.12937 10.7607 2.06372 10.8779 2.06372 11.0156C2.06372 11.1299 2.12937 11.2471 2.25655 11.3379C3.64332 12.3516 5.51421 12.9023 7.5164 12.9023C9.45294 12.9023 11.291 12.3721 12.6778 11.3818C12.805 11.291 12.8706 11.1738 12.8706 11.0596C12.8706 10.9453 12.805 10.8281 12.6778 10.7373C12.5506 10.6465 12.3865 10.5996 12.2265 10.5996C12.0665 10.5762 11.9064 10.6465 11.7752 10.7139ZM2.25655 3.6416C2.12937 3.73242 2.06372 3.84961 2.06372 3.96387C2.06372 4.10156 2.12937 4.21875 2.25655 4.30957C2.51503 4.49414 2.93352 4.49414 3.192 4.30957C4.35311 3.48047 5.83834 3.02051 7.48358 3.02051C9.096 3.02051 10.6469 3.45703 11.7752 4.26563C12.0336 4.4502 12.4521 4.4502 12.7106 4.26563C12.8378 4.17481 12.9034 4.05762 12.9034 3.94336C12.9034 3.80567 12.8378 3.68848 12.7106 3.62109C11.3238 2.63086 9.45295 2.10059 7.48358 2.10059C5.48139 2.07422 3.67614 2.62793 2.25655 3.6416Z" fill="#C94B15"/>
<path d="M4.09455 9.12305C3.96736 9.21387 3.90172 9.33105 3.90172 9.46875C3.90172 9.58301 3.96736 9.7002 4.09455 9.79102C4.99718 10.459 6.22393 10.8281 7.51633 10.8281C8.7759 10.8281 9.96983 10.4824 10.9053 9.83789C11.0325 9.74707 11.0981 9.62988 11.0981 9.49219C11.0981 9.37793 11.0325 9.26074 10.9053 9.16992C10.7781 9.0791 10.614 9.03223 10.454 9.03223C10.294 9.03223 10.097 9.0791 9.96983 9.16992C9.32568 9.62988 8.45177 9.88477 7.51633 9.88477C6.58088 9.88477 5.67825 9.60937 5.03 9.14648C4.77152 8.94141 4.35303 8.94141 4.09455 9.12305ZM4.06173 5.16211C3.93454 5.25293 3.8689 5.37012 3.8689 5.48438C3.8689 5.62207 3.93454 5.73926 4.06173 5.83008C4.32021 6.01465 4.7387 6.01465 4.99718 5.83008C5.67415 5.34668 6.54805 5.06836 7.51222 5.06836C8.44767 5.06836 9.31747 5.32324 9.96572 5.7832C10.0929 5.87402 10.257 5.9209 10.417 5.9209C10.577 5.9209 10.7412 5.87402 10.8683 5.7832C10.9955 5.69238 11.0612 5.57519 11.0612 5.46094C11.0612 5.34668 10.9955 5.20605 10.8683 5.13867C9.96572 4.49414 8.7718 4.14844 7.4794 4.14844C6.22393 4.125 4.99718 4.49414 4.06173 5.16211ZM5.71107 7.48828C5.71107 8.17969 6.51933 8.75684 7.48761 8.75684C8.45588 8.75684 9.26414 8.17969 9.26414 7.48828C9.26414 6.79687 8.45588 6.21973 7.48761 6.21973C6.51933 6.21973 5.71107 6.79687 5.71107 7.48828Z" fill="#C94B15"/>
</svg>
